<svg xmlns="http://www.w3.org/2000/svg" xmlns:xlink="http://www.w3.org/1999/xlink" width="500" zoomAndPan="magnify" viewBox="0 0 375 374.999991" height="500" preserveAspectRatio="xMidYMid meet" version="1.2"><defs><clipPath id="7128b3dcc9"><path d="M 9.410156 47.480469 L 179.832031 47.480469 L 179.832031 330.332031 L 9.410156 330.332031 Z M 9.410156 47.480469 "/></clipPath><clipPath id="37af10fc18"><path d="M 21.726562 291.242188 L 49.617188 291.242188 L 49.617188 319.128906 L 21.726562 319.128906 Z M 21.726562 291.242188 "/></clipPath><clipPath id="56f570dd0f"><path d="M 35.671875 291.242188 C 27.972656 291.242188 21.726562 297.484375 21.726562 305.1875 C 21.726562 312.886719 27.972656 319.128906 35.671875 319.128906 C 43.375 319.128906 49.617188 312.886719 49.617188 305.1875 C 49.617188 297.484375 43.375 291.242188 35.671875 291.242188 Z M 35.671875 291.242188 "/></clipPath><clipPath id="563b020f8f"><path d="M 60.609375 291.242188 L 88.496094 291.242188 L 88.496094 319.128906 L 60.609375 319.128906 Z M 60.609375 291.242188 "/></clipPath><clipPath id="55b3cb059b"><path d="M 74.554688 291.242188 C 66.851562 291.242188 60.609375 297.484375 60.609375 305.1875 C 60.609375 312.886719 66.851562 319.128906 74.554688 319.128906 C 82.253906 319.128906 88.496094 312.886719 88.496094 305.1875 C 88.496094 297.484375 82.253906 291.242188 74.554688 291.242188 Z M 74.554688 291.242188 "/></clipPath><clipPath id="20f12ac116"><path d="M 99.488281 291.242188 L 127.378906 291.242188 L 127.378906 319.128906 L 99.488281 319.128906 Z M 99.488281 291.242188 "/></clipPath><clipPath id="273103867b"><path d="M 113.433594 291.242188 C 105.730469 291.242188 99.488281 297.484375 99.488281 305.1875 C 99.488281 312.886719 105.730469 319.128906 113.433594 319.128906 C 121.132812 319.128906 127.378906 312.886719 127.378906 305.1875 C 127.378906 297.484375 121.132812 291.242188 113.433594 291.242188 Z M 113.433594 291.242188 "/></clipPath><clipPath id="7bd6ce2232"><path d="M 138.371094 291.242188 L 166.257812 291.242188 L 166.257812 319.128906 L 138.371094 319.128906 Z M 138.371094 291.242188 "/></clipPath><clipPath id="4a5bf56d16"><path d="M 152.3125 291.242188 C 144.613281 291.242188 138.371094 297.484375 138.371094 305.1875 C 138.371094 312.886719 144.613281 319.128906 152.3125 319.128906 C 160.015625 319.128906 166.257812 312.886719 166.257812 305.1875 C 166.257812 297.484375 160.015625 291.242188 152.3125 291.242188 Z M 152.3125 291.242188 "/></clipPath><clipPath id="4fb2d2c28c"><path d="M 60.609375 174.730469 L 88.496094 174.730469 L 88.496094 202.617188 L 60.609375 202.617188 Z M 60.609375 174.730469 "/></clipPath><clipPath id="b8a2863d88"><path d="M 74.554688 174.730469 C 66.851562 174.730469 60.609375 180.972656 60.609375 188.671875 C 60.609375 196.375 66.851562 202.617188 74.554688 202.617188 C 82.253906 202.617188 88.496094 196.375 88.496094 188.671875 C 88.496094 180.972656 82.253906 174.730469 74.554688 174.730469 Z M 74.554688 174.730469 "/></clipPath><clipPath id="de29c70593"><path d="M 60.609375 58.085938 L 88.496094 58.085938 L 88.496094 85.976562 L 60.609375 85.976562 Z M 60.609375 58.085938 "/></clipPath><clipPath id="2d8f22ea0b"><path d="M 74.554688 58.085938 C 66.851562 58.085938 60.609375 64.332031 60.609375 72.03125 C 60.609375 79.734375 66.851562 85.976562 74.554688 85.976562 C 82.253906 85.976562 88.496094 79.734375 88.496094 72.03125 C 88.496094 64.332031 82.253906 58.085938 74.554688 58.085938 Z M 74.554688 58.085938 "/></clipPath><clipPath id="31e1e39859"><path d="M 99.488281 58.085938 L 127.378906 58.085938 L 127.378906 85.976562 L 99.488281 85.976562 Z M 99.488281 58.085938 "/></clipPath><clipPath id="e9af8bbe59"><path d="M 113.433594 58.085938 C 105.730469 58.085938 99.488281 64.332031 99.488281 72.03125 C 99.488281 79.734375 105.730469 85.976562 113.433594 85.976562 C 121.132812 85.976562 127.378906 79.734375 127.378906 72.03125 C 127.378906 64.332031 121.132812 58.085938 113.433594 58.085938 Z M 113.433594 58.085938 "/></clipPath><clipPath id="0f1a45993a"><path d="M 99.425781 174.730469 L 127.3125 174.730469 L 127.3125 202.617188 L 99.425781 202.617188 Z M 99.425781 174.730469 "/></clipPath><clipPath id="670d4c4d90"><path d="M 113.371094 174.730469 C 105.667969 174.730469 99.425781 180.972656 99.425781 188.671875 C 99.425781 196.375 105.667969 202.617188 113.371094 202.617188 C 121.070312 202.617188 127.3125 196.375 127.3125 188.671875 C 127.3125 180.972656 121.070312 174.730469 113.371094 174.730469 Z M 113.371094 174.730469 "/></clipPath><clipPath id="86e9968d21"><path d="M 138.359375 58.085938 L 166.25 58.085938 L 166.25 85.976562 L 138.359375 85.976562 Z M 138.359375 58.085938 "/></clipPath><clipPath id="2d9ef1138c"><path d="M 166.25 72.03125 C 166.25 64.332031 160.003906 58.085938 152.304688 58.085938 C 144.601562 58.085938 138.359375 64.332031 138.359375 72.03125 C 138.359375 79.734375 144.601562 85.976562 152.304688 85.976562 C 160.003906 85.976562 166.25 79.734375 166.25 72.03125 Z M 166.25 72.03125 "/></clipPath><clipPath id="53327106b6"><path d="M 138.359375 96.96875 L 166.25 96.96875 L 166.25 124.855469 L 138.359375 124.855469 Z M 138.359375 96.96875 "/></clipPath><clipPath id="c4710bed26"><path d="M 166.25 110.910156 C 166.25 103.210938 160.003906 96.96875 152.304688 96.96875 C 144.601562 96.96875 138.359375 103.210938 138.359375 110.910156 C 138.359375 118.613281 144.601562 124.855469 152.304688 124.855469 C 160.003906 124.855469 166.25 118.613281 166.25 110.910156 Z M 166.25 110.910156 "/></clipPath><clipPath id="acb464598c"><path d="M 138.359375 135.847656 L 166.25 135.847656 L 166.25 163.738281 L 138.359375 163.738281 Z M 138.359375 135.847656 "/></clipPath><clipPath id="a11e1134b2"><path d="M 166.25 149.792969 C 166.25 142.089844 160.003906 135.847656 152.304688 135.847656 C 144.601562 135.847656 138.359375 142.089844 138.359375 149.792969 C 138.359375 157.492188 144.601562 163.738281 152.304688 163.738281 C 160.003906 163.738281 166.25 157.492188 166.25 149.792969 Z M 166.25 149.792969 "/></clipPath><clipPath id="61637a33c3"><path d="M 138.359375 174.730469 L 166.25 174.730469 L 166.25 202.617188 L 138.359375 202.617188 Z M 138.359375 174.730469 "/></clipPath><clipPath id="9c7bbc449c"><path d="M 166.25 188.671875 C 166.25 180.972656 160.003906 174.730469 152.304688 174.730469 C 144.601562 174.730469 138.359375 180.972656 138.359375 188.671875 C 138.359375 196.375 144.601562 202.617188 152.304688 202.617188 C 160.003906 202.617188 166.25 196.375 166.25 188.671875 Z M 166.25 188.671875 "/></clipPath><clipPath id="feff294086"><path d="M 21.71875 58.085938 L 49.605469 58.085938 L 49.605469 85.976562 L 21.71875 85.976562 Z M 21.71875 58.085938 "/></clipPath><clipPath id="441cd0b48b"><path d="M 49.605469 72.03125 C 49.605469 64.332031 43.363281 58.085938 35.664062 58.085938 C 27.960938 58.085938 21.71875 64.332031 21.71875 72.03125 C 21.71875 79.734375 27.960938 85.976562 35.664062 85.976562 C 43.363281 85.976562 49.605469 79.734375 49.605469 72.03125 Z M 49.605469 72.03125 "/></clipPath><clipPath id="7c474782e6"><path d="M 21.71875 96.96875 L 49.605469 96.96875 L 49.605469 124.855469 L 21.71875 124.855469 Z M 21.71875 96.96875 "/></clipPath><clipPath id="2e8247219c"><path d="M 49.605469 110.910156 C 49.605469 103.210938 43.363281 96.96875 35.664062 96.96875 C 27.960938 96.96875 21.71875 103.210938 21.71875 110.910156 C 21.71875 118.613281 27.960938 124.855469 35.664062 124.855469 C 43.363281 124.855469 49.605469 118.613281 49.605469 110.910156 Z M 49.605469 110.910156 "/></clipPath><clipPath id="7d960bea1e"><path d="M 21.71875 135.847656 L 49.605469 135.847656 L 49.605469 163.738281 L 21.71875 163.738281 Z M 21.71875 135.847656 "/></clipPath><clipPath id="67395a56c0"><path d="M 49.605469 149.792969 C 49.605469 142.089844 43.363281 135.847656 35.664062 135.847656 C 27.960938 135.847656 21.71875 142.089844 21.71875 149.792969 C 21.71875 157.492188 27.960938 163.738281 35.664062 163.738281 C 43.363281 163.738281 49.605469 157.492188 49.605469 149.792969 Z M 49.605469 149.792969 "/></clipPath><clipPath id="f62cb249f7"><path d="M 21.71875 174.730469 L 49.605469 174.730469 L 49.605469 202.617188 L 21.71875 202.617188 Z M 21.71875 174.730469 "/></clipPath><clipPath id="665046118e"><path d="M 49.605469 188.671875 C 49.605469 180.972656 43.363281 174.730469 35.664062 174.730469 C 27.960938 174.730469 21.71875 180.972656 21.71875 188.671875 C 21.71875 196.375 27.960938 202.617188 35.664062 202.617188 C 43.363281 202.617188 49.605469 196.375 49.605469 188.671875 Z M 49.605469 188.671875 "/></clipPath><clipPath id="04f5a38697"><path d="M 138.359375 213.546875 L 166.25 213.546875 L 166.25 241.433594 L 138.359375 241.433594 Z M 138.359375 213.546875 "/></clipPath><clipPath id="7961ae65a8"><path d="M 166.25 227.488281 C 166.25 219.789062 160.003906 213.546875 152.304688 213.546875 C 144.601562 213.546875 138.359375 219.789062 138.359375 227.488281 C 138.359375 235.191406 144.601562 241.433594 152.304688 241.433594 C 160.003906 241.433594 166.25 235.191406 166.25 227.488281 Z M 166.25 227.488281 "/></clipPath><clipPath id="255dd0d27a"><path d="M 138.359375 252.425781 L 166.25 252.425781 L 166.25 280.3125 L 138.359375 280.3125 Z M 138.359375 252.425781 "/></clipPath><clipPath id="040743095e"><path d="M 166.25 266.371094 C 166.25 258.667969 160.003906 252.425781 152.304688 252.425781 C 144.601562 252.425781 138.359375 258.667969 138.359375 266.371094 C 138.359375 274.070312 144.601562 280.3125 152.304688 280.3125 C 160.003906 280.3125 166.25 274.070312 166.25 266.371094 Z M 166.25 266.371094 "/></clipPath><clipPath id="9d6ffe54bb"><path d="M 21.71875 213.546875 L 49.605469 213.546875 L 49.605469 241.433594 L 21.71875 241.433594 Z M 21.71875 213.546875 "/></clipPath><clipPath id="1dffa8b1d9"><path d="M 49.605469 227.488281 C 49.605469 219.789062 43.363281 213.546875 35.664062 213.546875 C 27.960938 213.546875 21.71875 219.789062 21.71875 227.488281 C 21.71875 235.191406 27.960938 241.433594 35.664062 241.433594 C 43.363281 241.433594 49.605469 235.191406 49.605469 227.488281 Z M 49.605469 227.488281 "/></clipPath><clipPath id="ebb027454b"><path d="M 21.71875 252.425781 L 49.605469 252.425781 L 49.605469 280.3125 L 21.71875 280.3125 Z M 21.71875 252.425781 "/></clipPath><clipPath id="50e6e9aa4b"><path d="M 49.605469 266.371094 C 49.605469 258.667969 43.363281 252.425781 35.664062 252.425781 C 27.960938 252.425781 21.71875 258.667969 21.71875 266.371094 C 21.71875 274.070312 27.960938 280.3125 35.664062 280.3125 C 43.363281 280.3125 49.605469 274.070312 49.605469 266.371094 Z M 49.605469 266.371094 "/></clipPath><clipPath id="485bce3594"><path d="M 190.519531 47.480469 L 361.652344 47.480469 L 361.652344 330.332031 L 190.519531 330.332031 Z M 190.519531 47.480469 "/></clipPath><clipPath id="6296428aca"><path d="M 204.242188 291.242188 L 232.128906 291.242188 L 232.128906 319.128906 L 204.242188 319.128906 Z M 204.242188 291.242188 "/></clipPath><clipPath id="3056f47964"><path d="M 218.1875 291.242188 C 210.484375 291.242188 204.242188 297.484375 204.242188 305.1875 C 204.242188 312.886719 210.484375 319.128906 218.1875 319.128906 C 225.886719 319.128906 232.128906 312.886719 232.128906 305.1875 C 232.128906 297.484375 225.886719 291.242188 218.1875 291.242188 Z M 218.1875 291.242188 "/></clipPath><clipPath id="aecbbc802a"><path d="M 243.121094 291.242188 L 271.011719 291.242188 L 271.011719 319.128906 L 243.121094 319.128906 Z M 243.121094 291.242188 "/></clipPath><clipPath id="dba0afa2c2"><path d="M 257.066406 291.242188 C 249.367188 291.242188 243.121094 297.484375 243.121094 305.1875 C 243.121094 312.886719 249.367188 319.128906 257.066406 319.128906 C 264.769531 319.128906 271.011719 312.886719 271.011719 305.1875 C 271.011719 297.484375 264.769531 291.242188 257.066406 291.242188 Z M 257.066406 291.242188 "/></clipPath><clipPath id="11cfb80b26"><path d="M 282.003906 291.242188 L 309.890625 291.242188 L 309.890625 319.128906 L 282.003906 319.128906 Z M 282.003906 291.242188 "/></clipPath><clipPath id="a46a656d8c"><path d="M 295.945312 291.242188 C 288.246094 291.242188 282.003906 297.484375 282.003906 305.1875 C 282.003906 312.886719 288.246094 319.128906 295.945312 319.128906 C 303.648438 319.128906 309.890625 312.886719 309.890625 305.1875 C 309.890625 297.484375 303.648438 291.242188 295.945312 291.242188 Z M 295.945312 291.242188 "/></clipPath><clipPath id="2e0327ae77"><path d="M 320.882812 291.242188 L 348.773438 291.242188 L 348.773438 319.128906 L 320.882812 319.128906 Z M 320.882812 291.242188 "/></clipPath><clipPath id="6f879c9e48"><path d="M 334.828125 291.242188 C 327.125 291.242188 320.882812 297.484375 320.882812 305.1875 C 320.882812 312.886719 327.125 319.128906 334.828125 319.128906 C 342.527344 319.128906 348.773438 312.886719 348.773438 305.1875 C 348.773438 297.484375 342.527344 291.242188 334.828125 291.242188 Z M 334.828125 291.242188 "/></clipPath><clipPath id="fa5d1952e5"><path d="M 243.121094 174.730469 L 271.011719 174.730469 L 271.011719 202.617188 L 243.121094 202.617188 Z M 243.121094 174.730469 "/></clipPath><clipPath id="46234e0c61"><path d="M 257.066406 174.730469 C 249.367188 174.730469 243.121094 180.972656 243.121094 188.671875 C 243.121094 196.375 249.367188 202.617188 257.066406 202.617188 C 264.769531 202.617188 271.011719 196.375 271.011719 188.671875 C 271.011719 180.972656 264.769531 174.730469 257.066406 174.730469 Z M 257.066406 174.730469 "/></clipPath><clipPath id="7cea3eb07d"><path d="M 243.121094 58.085938 L 271.011719 58.085938 L 271.011719 85.976562 L 243.121094 85.976562 Z M 243.121094 58.085938 "/></clipPath><clipPath id="a155b8ed49"><path d="M 257.066406 58.085938 C 249.367188 58.085938 243.121094 64.332031 243.121094 72.03125 C 243.121094 79.734375 249.367188 85.976562 257.066406 85.976562 C 264.769531 85.976562 271.011719 79.734375 271.011719 72.03125 C 271.011719 64.332031 264.769531 58.085938 257.066406 58.085938 Z M 257.066406 58.085938 "/></clipPath><clipPath id="670e72625f"><path d="M 282.003906 58.085938 L 309.890625 58.085938 L 309.890625 85.976562 L 282.003906 85.976562 Z M 282.003906 58.085938 "/></clipPath><clipPath id="57a1559cd8"><path d="M 295.945312 58.085938 C 288.246094 58.085938 282.003906 64.332031 282.003906 72.03125 C 282.003906 79.734375 288.246094 85.976562 295.945312 85.976562 C 303.648438 85.976562 309.890625 79.734375 309.890625 72.03125 C 309.890625 64.332031 303.648438 58.085938 295.945312 58.085938 Z M 295.945312 58.085938 "/></clipPath><clipPath id="71ba33542f"><path d="M 281.9375 174.730469 L 309.828125 174.730469 L 309.828125 202.617188 L 281.9375 202.617188 Z M 281.9375 174.730469 "/></clipPath><clipPath id="9ada68bb7c"><path d="M 295.882812 174.730469 C 288.183594 174.730469 281.9375 180.972656 281.9375 188.671875 C 281.9375 196.375 288.183594 202.617188 295.882812 202.617188 C 303.585938 202.617188 309.828125 196.375 309.828125 188.671875 C 309.828125 180.972656 303.585938 174.730469 295.882812 174.730469 Z M 295.882812 174.730469 "/></clipPath><clipPath id="3b28d787c5"><path d="M 320.875 58.085938 L 348.761719 58.085938 L 348.761719 85.976562 L 320.875 85.976562 Z M 320.875 58.085938 "/></clipPath><clipPath id="6c09892a08"><path d="M 348.761719 72.03125 C 348.761719 64.332031 342.519531 58.085938 334.816406 58.085938 C 327.117188 58.085938 320.875 64.332031 320.875 72.03125 C 320.875 79.734375 327.117188 85.976562 334.816406 85.976562 C 342.519531 85.976562 348.761719 79.734375 348.761719 72.03125 Z M 348.761719 72.03125 "/></clipPath><clipPath id="115ea7cb80"><path d="M 320.875 96.96875 L 348.761719 96.96875 L 348.761719 124.855469 L 320.875 124.855469 Z M 320.875 96.96875 "/></clipPath><clipPath id="e5dd9e5879"><path d="M 348.761719 110.910156 C 348.761719 103.210938 342.519531 96.96875 334.816406 96.96875 C 327.117188 96.96875 320.875 103.210938 320.875 110.910156 C 320.875 118.613281 327.117188 124.855469 334.816406 124.855469 C 342.519531 124.855469 348.761719 118.613281 348.761719 110.910156 Z M 348.761719 110.910156 "/></clipPath><clipPath id="18d3a5d226"><path d="M 320.875 135.847656 L 348.761719 135.847656 L 348.761719 163.738281 L 320.875 163.738281 Z M 320.875 135.847656 "/></clipPath><clipPath id="b0cf22f9bf"><path d="M 348.761719 149.792969 C 348.761719 142.089844 342.519531 135.847656 334.816406 135.847656 C 327.117188 135.847656 320.875 142.089844 320.875 149.792969 C 320.875 157.492188 327.117188 163.738281 334.816406 163.738281 C 342.519531 163.738281 348.761719 157.492188 348.761719 149.792969 Z M 348.761719 149.792969 "/></clipPath><clipPath id="e042f22858"><path d="M 320.875 174.730469 L 348.761719 174.730469 L 348.761719 202.617188 L 320.875 202.617188 Z M 320.875 174.730469 "/></clipPath><clipPath id="3cf95f5542"><path d="M 348.761719 188.671875 C 348.761719 180.972656 342.519531 174.730469 334.816406 174.730469 C 327.117188 174.730469 320.875 180.972656 320.875 188.671875 C 320.875 196.375 327.117188 202.617188 334.816406 202.617188 C 342.519531 202.617188 348.761719 196.375 348.761719 188.671875 Z M 348.761719 188.671875 "/></clipPath><clipPath id="f677f213e4"><path d="M 204.234375 58.085938 L 232.121094 58.085938 L 232.121094 85.976562 L 204.234375 85.976562 Z M 204.234375 58.085938 "/></clipPath><clipPath id="81406de529"><path d="M 232.121094 72.03125 C 232.121094 64.332031 225.878906 58.085938 218.175781 58.085938 C 210.476562 58.085938 204.234375 64.332031 204.234375 72.03125 C 204.234375 79.734375 210.476562 85.976562 218.175781 85.976562 C 225.878906 85.976562 232.121094 79.734375 232.121094 72.03125 Z M 232.121094 72.03125 "/></clipPath><clipPath id="e4f84990b4"><path d="M 204.234375 96.96875 L 232.121094 96.96875 L 232.121094 124.855469 L 204.234375 124.855469 Z M 204.234375 96.96875 "/></clipPath><clipPath id="e84f634e0d"><path d="M 232.121094 110.910156 C 232.121094 103.210938 225.878906 96.96875 218.175781 96.96875 C 210.476562 96.96875 204.234375 103.210938 204.234375 110.910156 C 204.234375 118.613281 210.476562 124.855469 218.175781 124.855469 C 225.878906 124.855469 232.121094 118.613281 232.121094 110.910156 Z M 232.121094 110.910156 "/></clipPath><clipPath id="c913e658ac"><path d="M 204.234375 135.847656 L 232.121094 135.847656 L 232.121094 163.738281 L 204.234375 163.738281 Z M 204.234375 135.847656 "/></clipPath><clipPath id="e7d818df38"><path d="M 232.121094 149.792969 C 232.121094 142.089844 225.878906 135.847656 218.175781 135.847656 C 210.476562 135.847656 204.234375 142.089844 204.234375 149.792969 C 204.234375 157.492188 210.476562 163.738281 218.175781 163.738281 C 225.878906 163.738281 232.121094 157.492188 232.121094 149.792969 Z M 232.121094 149.792969 "/></clipPath><clipPath id="fdcc723ec7"><path d="M 204.234375 174.730469 L 232.121094 174.730469 L 232.121094 202.617188 L 204.234375 202.617188 Z M 204.234375 174.730469 "/></clipPath><clipPath id="0d00bbd240"><path d="M 232.121094 188.671875 C 232.121094 180.972656 225.878906 174.730469 218.175781 174.730469 C 210.476562 174.730469 204.234375 180.972656 204.234375 188.671875 C 204.234375 196.375 210.476562 202.617188 218.175781 202.617188 C 225.878906 202.617188 232.121094 196.375 232.121094 188.671875 Z M 232.121094 188.671875 "/></clipPath><clipPath id="01f700d3cf"><path d="M 320.875 213.546875 L 348.761719 213.546875 L 348.761719 241.433594 L 320.875 241.433594 Z M 320.875 213.546875 "/></clipPath><clipPath id="c7f652444e"><path d="M 348.761719 227.488281 C 348.761719 219.789062 342.519531 213.546875 334.816406 213.546875 C 327.117188 213.546875 320.875 219.789062 320.875 227.488281 C 320.875 235.191406 327.117188 241.433594 334.816406 241.433594 C 342.519531 241.433594 348.761719 235.191406 348.761719 227.488281 Z M 348.761719 227.488281 "/></clipPath><clipPath id="cb6b07ef98"><path d="M 320.875 252.425781 L 348.761719 252.425781 L 348.761719 280.3125 L 320.875 280.3125 Z M 320.875 252.425781 "/></clipPath><clipPath id="e50733345c"><path d="M 348.761719 266.371094 C 348.761719 258.667969 342.519531 252.425781 334.816406 252.425781 C 327.117188 252.425781 320.875 258.667969 320.875 266.371094 C 320.875 274.070312 327.117188 280.3125 334.816406 280.3125 C 342.519531 280.3125 348.761719 274.070312 348.761719 266.371094 Z M 348.761719 266.371094 "/></clipPath><clipPath id="1f1db0c4bc"><path d="M 204.234375 213.546875 L 232.121094 213.546875 L 232.121094 241.433594 L 204.234375 241.433594 Z M 204.234375 213.546875 "/></clipPath><clipPath id="290c23f043"><path d="M 232.121094 227.488281 C 232.121094 219.789062 225.878906 213.546875 218.175781 213.546875 C 210.476562 213.546875 204.234375 219.789062 204.234375 227.488281 C 204.234375 235.191406 210.476562 241.433594 218.175781 241.433594 C 225.878906 241.433594 232.121094 235.191406 232.121094 227.488281 Z M 232.121094 227.488281 "/></clipPath><clipPath id="b27df0b2c1"><path d="M 204.234375 252.425781 L 232.121094 252.425781 L 232.121094 280.3125 L 204.234375 280.3125 Z M 204.234375 252.425781 "/></clipPath><clipPath id="46509ecf5f"><path d="M 232.121094 266.371094 C 232.121094 258.667969 225.878906 252.425781 218.175781 252.425781 C 210.476562 252.425781 204.234375 258.667969 204.234375 266.371094 C 204.234375 274.070312 210.476562 280.3125 218.175781 280.3125 C 225.878906 280.3125 232.121094 274.070312 232.121094 266.371094 Z M 232.121094 266.371094 "/></clipPath></defs><g id="b4466ccc7a"><g clip-rule="nonzero" clip-path="url(#7128b3dcc9)"><path style=" stroke:none;fill-rule:nonzero;fill:#222222;fill-opacity:1;" d="M 9.410156 47.480469 L 179.832031 47.480469 L 179.832031 330.40625 L 9.410156 330.40625 Z M 9.410156 47.480469 "/></g><g clip-rule="nonzero" clip-path="url(#37af10fc18)"><g clip-rule="nonzero" clip-path="url(#56f570dd0f)"><path style=" stroke:none;fill-rule:nonzero;fill:#7ed957;fill-opacity:1;" d="M 21.726562 291.242188 L 49.617188 291.242188 L 49.617188 319.128906 L 21.726562 319.128906 Z M 21.726562 291.242188 "/></g></g><g clip-rule="nonzero" clip-path="url(#563b020f8f)"><g clip-rule="nonzero" clip-path="url(#55b3cb059b)"><path style=" stroke:none;fill-rule:nonzero;fill:#7ed957;fill-opacity:1;" d="M 60.609375 291.242188 L 88.496094 291.242188 L 88.496094 319.128906 L 60.609375 319.128906 Z M 60.609375 291.242188 "/></g></g><g clip-rule="nonzero" clip-path="url(#20f12ac116)"><g clip-rule="nonzero" clip-path="url(#273103867b)"><path style=" stroke:none;fill-rule:nonzero;fill:#7ed957;fill-opacity:1;" d="M 99.488281 291.242188 L 127.378906 291.242188 L 127.378906 319.128906 L 99.488281 319.128906 Z M 99.488281 291.242188 "/></g></g><g clip-rule="nonzero" clip-path="url(#7bd6ce2232)"><g clip-rule="nonzero" clip-path="url(#4a5bf56d16)"><path style=" stroke:none;fill-rule:nonzero;fill:#7ed957;fill-opacity:1;" d="M 138.371094 291.242188 L 166.257812 291.242188 L 166.257812 319.128906 L 138.371094 319.128906 Z M 138.371094 291.242188 "/></g></g><g clip-rule="nonzero" clip-path="url(#4fb2d2c28c)"><g clip-rule="nonzero" clip-path="url(#b8a2863d88)"><path style=" stroke:none;fill-rule:nonzero;fill:#403d3a;fill-opacity:1;" d="M 60.609375 174.730469 L 88.496094 174.730469 L 88.496094 202.617188 L 60.609375 202.617188 Z M 60.609375 174.730469 "/></g></g><g clip-rule="nonzero" clip-path="url(#de29c70593)"><g clip-rule="nonzero" clip-path="url(#2d8f22ea0b)"><path style=" stroke:none;fill-rule:nonzero;fill:#403d3a;fill-opacity:1;" d="M 60.609375 58.085938 L 88.496094 58.085938 L 88.496094 85.976562 L 60.609375 85.976562 Z M 60.609375 58.085938 "/></g></g><g clip-rule="nonzero" clip-path="url(#31e1e39859)"><g clip-rule="nonzero" clip-path="url(#e9af8bbe59)"><path style=" stroke:none;fill-rule:nonzero;fill:#403d3a;fill-opacity:1;" d="M 99.488281 58.085938 L 127.378906 58.085938 L 127.378906 85.976562 L 99.488281 85.976562 Z M 99.488281 58.085938 "/></g></g><g clip-rule="nonzero" clip-path="url(#0f1a45993a)"><g clip-rule="nonzero" clip-path="url(#670d4c4d90)"><path style=" stroke:none;fill-rule:nonzero;fill:#403d3a;fill-opacity:1;" d="M 99.425781 174.730469 L 127.3125 174.730469 L 127.3125 202.617188 L 99.425781 202.617188 Z M 99.425781 174.730469 "/></g></g><g clip-rule="nonzero" clip-path="url(#86e9968d21)"><g clip-rule="nonzero" clip-path="url(#2d9ef1138c)"><path style=" stroke:none;fill-rule:nonzero;fill:#7ed957;fill-opacity:1;" d="M 166.25 58.085938 L 166.25 85.976562 L 138.359375 85.976562 L 138.359375 58.085938 Z M 166.25 58.085938 "/></g></g><g clip-rule="nonzero" clip-path="url(#53327106b6)"><g clip-rule="nonzero" clip-path="url(#c4710bed26)"><path style=" stroke:none;fill-rule:nonzero;fill:#7ed957;fill-opacity:1;" d="M 166.25 96.96875 L 166.25 124.855469 L 138.359375 124.855469 L 138.359375 96.96875 Z M 166.25 96.96875 "/></g></g><g clip-rule="nonzero" clip-path="url(#acb464598c)"><g clip-rule="nonzero" clip-path="url(#a11e1134b2)"><path style=" stroke:none;fill-rule:nonzero;fill:#7ed957;fill-opacity:1;" d="M 166.25 135.847656 L 166.25 163.738281 L 138.359375 163.738281 L 138.359375 135.847656 Z M 166.25 135.847656 "/></g></g><g clip-rule="nonzero" clip-path="url(#61637a33c3)"><g clip-rule="nonzero" clip-path="url(#9c7bbc449c)"><path style=" stroke:none;fill-rule:nonzero;fill:#7ed957;fill-opacity:1;" d="M 166.25 174.730469 L 166.25 202.617188 L 138.359375 202.617188 L 138.359375 174.730469 Z M 166.25 174.730469 "/></g></g><g clip-rule="nonzero" clip-path="url(#feff294086)"><g clip-rule="nonzero" clip-path="url(#441cd0b48b)"><path style=" stroke:none;fill-rule:nonzero;fill:#403d3a;fill-opacity:1;" d="M 49.605469 58.085938 L 49.605469 85.976562 L 21.71875 85.976562 L 21.71875 58.085938 Z M 49.605469 58.085938 "/></g></g><g clip-rule="nonzero" clip-path="url(#7c474782e6)"><g clip-rule="nonzero" clip-path="url(#2e8247219c)"><path style=" stroke:none;fill-rule:nonzero;fill:#403d3a;fill-opacity:1;" d="M 49.605469 96.96875 L 49.605469 124.855469 L 21.71875 124.855469 L 21.71875 96.96875 Z M 49.605469 96.96875 "/></g></g><g clip-rule="nonzero" clip-path="url(#7d960bea1e)"><g clip-rule="nonzero" clip-path="url(#67395a56c0)"><path style=" stroke:none;fill-rule:nonzero;fill:#403d3a;fill-opacity:1;" d="M 49.605469 135.847656 L 49.605469 163.738281 L 21.71875 163.738281 L 21.71875 135.847656 Z M 49.605469 135.847656 "/></g></g><g clip-rule="nonzero" clip-path="url(#f62cb249f7)"><g clip-rule="nonzero" clip-path="url(#665046118e)"><path style=" stroke:none;fill-rule:nonzero;fill:#403d3a;fill-opacity:1;" d="M 49.605469 174.730469 L 49.605469 202.617188 L 21.71875 202.617188 L 21.71875 174.730469 Z M 49.605469 174.730469 "/></g></g><g clip-rule="nonzero" clip-path="url(#04f5a38697)"><g clip-rule="nonzero" clip-path="url(#7961ae65a8)"><path style=" stroke:none;fill-rule:nonzero;fill:#7ed957;fill-opacity:1;" d="M 166.25 213.546875 L 166.25 241.433594 L 138.359375 241.433594 L 138.359375 213.546875 Z M 166.25 213.546875 "/></g></g><g clip-rule="nonzero" clip-path="url(#255dd0d27a)"><g clip-rule="nonzero" clip-path="url(#040743095e)"><path style=" stroke:none;fill-rule:nonzero;fill:#7ed957;fill-opacity:1;" d="M 166.25 252.425781 L 166.25 280.3125 L 138.359375 280.3125 L 138.359375 252.425781 Z M 166.25 252.425781 "/></g></g><g clip-rule="nonzero" clip-path="url(#9d6ffe54bb)"><g clip-rule="nonzero" clip-path="url(#1dffa8b1d9)"><path style=" stroke:none;fill-rule:nonzero;fill:#403d3a;fill-opacity:1;" d="M 49.605469 213.546875 L 49.605469 241.433594 L 21.71875 241.433594 L 21.71875 213.546875 Z M 49.605469 213.546875 "/></g></g><g clip-rule="nonzero" clip-path="url(#ebb027454b)"><g clip-rule="nonzero" clip-path="url(#50e6e9aa4b)"><path style=" stroke:none;fill-rule:nonzero;fill:#7ed957;fill-opacity:1;" d="M 49.605469 252.425781 L 49.605469 280.3125 L 21.71875 280.3125 L 21.71875 252.425781 Z M 49.605469 252.425781 "/></g></g><g clip-rule="nonzero" clip-path="url(#485bce3594)"><path style=" stroke:none;fill-rule:nonzero;fill:#222222;fill-opacity:1;" d="M 190.519531 47.480469 L 361.652344 47.480469 L 361.652344 330.25 L 190.519531 330.25 Z M 190.519531 47.480469 "/></g><g clip-rule="nonzero" clip-path="url(#6296428aca)"><g clip-rule="nonzero" clip-path="url(#3056f47964)"><path style=" stroke:none;fill-rule:nonzero;fill:#7ed957;fill-opacity:1;" d="M 204.242188 291.242188 L 232.128906 291.242188 L 232.128906 319.128906 L 204.242188 319.128906 Z M 204.242188 291.242188 "/></g></g><g clip-rule="nonzero" clip-path="url(#aecbbc802a)"><g clip-rule="nonzero" clip-path="url(#dba0afa2c2)"><path style=" stroke:none;fill-rule:nonzero;fill:#403d3a;fill-opacity:1;" d="M 243.121094 291.242188 L 271.011719 291.242188 L 271.011719 319.128906 L 243.121094 319.128906 Z M 243.121094 291.242188 "/></g></g><g clip-rule="nonzero" clip-path="url(#11cfb80b26)"><g clip-rule="nonzero" clip-path="url(#a46a656d8c)"><path style=" stroke:none;fill-rule:nonzero;fill:#403d3a;fill-opacity:1;" d="M 282.003906 291.242188 L 309.890625 291.242188 L 309.890625 319.128906 L 282.003906 319.128906 Z M 282.003906 291.242188 "/></g></g><g clip-rule="nonzero" clip-path="url(#2e0327ae77)"><g clip-rule="nonzero" clip-path="url(#6f879c9e48)"><path style=" stroke:none;fill-rule:nonzero;fill:#7ed957;fill-opacity:1;" d="M 320.882812 291.242188 L 348.773438 291.242188 L 348.773438 319.128906 L 320.882812 319.128906 Z M 320.882812 291.242188 "/></g></g><g clip-rule="nonzero" clip-path="url(#fa5d1952e5)"><g clip-rule="nonzero" clip-path="url(#46234e0c61)"><path style=" stroke:none;fill-rule:nonzero;fill:#7ed957;fill-opacity:1;" d="M 243.121094 174.730469 L 271.011719 174.730469 L 271.011719 202.617188 L 243.121094 202.617188 Z M 243.121094 174.730469 "/></g></g><g clip-rule="nonzero" clip-path="url(#7cea3eb07d)"><g clip-rule="nonzero" clip-path="url(#a155b8ed49)"><path style=" stroke:none;fill-rule:nonzero;fill:#403d3a;fill-opacity:1;" d="M 243.121094 58.085938 L 271.011719 58.085938 L 271.011719 85.976562 L 243.121094 85.976562 Z M 243.121094 58.085938 "/></g></g><g clip-rule="nonzero" clip-path="url(#670e72625f)"><g clip-rule="nonzero" clip-path="url(#57a1559cd8)"><path style=" stroke:none;fill-rule:nonzero;fill:#403d3a;fill-opacity:1;" d="M 282.003906 58.085938 L 309.890625 58.085938 L 309.890625 85.976562 L 282.003906 85.976562 Z M 282.003906 58.085938 "/></g></g><g clip-rule="nonzero" clip-path="url(#71ba33542f)"><g clip-rule="nonzero" clip-path="url(#9ada68bb7c)"><path style=" stroke:none;fill-rule:nonzero;fill:#7ed957;fill-opacity:1;" d="M 281.9375 174.730469 L 309.828125 174.730469 L 309.828125 202.617188 L 281.9375 202.617188 Z M 281.9375 174.730469 "/></g></g><g clip-rule="nonzero" clip-path="url(#3b28d787c5)"><g clip-rule="nonzero" clip-path="url(#6c09892a08)"><path style=" stroke:none;fill-rule:nonzero;fill:#7ed957;fill-opacity:1;" d="M 348.761719 58.085938 L 348.761719 85.976562 L 320.875 85.976562 L 320.875 58.085938 Z M 348.761719 58.085938 "/></g></g><g clip-rule="nonzero" clip-path="url(#115ea7cb80)"><g clip-rule="nonzero" clip-path="url(#e5dd9e5879)"><path style=" stroke:none;fill-rule:nonzero;fill:#7ed957;fill-opacity:1;" d="M 348.761719 96.96875 L 348.761719 124.855469 L 320.875 124.855469 L 320.875 96.96875 Z M 348.761719 96.96875 "/></g></g><g clip-rule="nonzero" clip-path="url(#18d3a5d226)"><g clip-rule="nonzero" clip-path="url(#b0cf22f9bf)"><path style=" stroke:none;fill-rule:nonzero;fill:#7ed957;fill-opacity:1;" d="M 348.761719 135.847656 L 348.761719 163.738281 L 320.875 163.738281 L 320.875 135.847656 Z M 348.761719 135.847656 "/></g></g><g clip-rule="nonzero" clip-path="url(#e042f22858)"><g clip-rule="nonzero" clip-path="url(#3cf95f5542)"><path style=" stroke:none;fill-rule:nonzero;fill:#7ed957;fill-opacity:1;" d="M 348.761719 174.730469 L 348.761719 202.617188 L 320.875 202.617188 L 320.875 174.730469 Z M 348.761719 174.730469 "/></g></g><g clip-rule="nonzero" clip-path="url(#f677f213e4)"><g clip-rule="nonzero" clip-path="url(#81406de529)"><path style=" stroke:none;fill-rule:nonzero;fill:#7ed957;fill-opacity:1;" d="M 232.121094 58.085938 L 232.121094 85.976562 L 204.234375 85.976562 L 204.234375 58.085938 Z M 232.121094 58.085938 "/></g></g><g clip-rule="nonzero" clip-path="url(#e4f84990b4)"><g clip-rule="nonzero" clip-path="url(#e84f634e0d)"><path style=" stroke:none;fill-rule:nonzero;fill:#7ed957;fill-opacity:1;" d="M 232.121094 96.96875 L 232.121094 124.855469 L 204.234375 124.855469 L 204.234375 96.96875 Z M 232.121094 96.96875 "/></g></g><g clip-rule="nonzero" clip-path="url(#c913e658ac)"><g clip-rule="nonzero" clip-path="url(#e7d818df38)"><path style=" stroke:none;fill-rule:nonzero;fill:#7ed957;fill-opacity:1;" d="M 232.121094 135.847656 L 232.121094 163.738281 L 204.234375 163.738281 L 204.234375 135.847656 Z M 232.121094 135.847656 "/></g></g><g clip-rule="nonzero" clip-path="url(#fdcc723ec7)"><g clip-rule="nonzero" clip-path="url(#0d00bbd240)"><path style=" stroke:none;fill-rule:nonzero;fill:#7ed957;fill-opacity:1;" d="M 232.121094 174.730469 L 232.121094 202.617188 L 204.234375 202.617188 L 204.234375 174.730469 Z M 232.121094 174.730469 "/></g></g><g clip-rule="nonzero" clip-path="url(#01f700d3cf)"><g clip-rule="nonzero" clip-path="url(#c7f652444e)"><path style=" stroke:none;fill-rule:nonzero;fill:#7ed957;fill-opacity:1;" d="M 348.761719 213.546875 L 348.761719 241.433594 L 320.875 241.433594 L 320.875 213.546875 Z M 348.761719 213.546875 "/></g></g><g clip-rule="nonzero" clip-path="url(#cb6b07ef98)"><g clip-rule="nonzero" clip-path="url(#e50733345c)"><path style=" stroke:none;fill-rule:nonzero;fill:#7ed957;fill-opacity:1;" d="M 348.761719 252.425781 L 348.761719 280.3125 L 320.875 280.3125 L 320.875 252.425781 Z M 348.761719 252.425781 "/></g></g><g clip-rule="nonzero" clip-path="url(#1f1db0c4bc)"><g clip-rule="nonzero" clip-path="url(#290c23f043)"><path style=" stroke:none;fill-rule:nonzero;fill:#7ed957;fill-opacity:1;" d="M 232.121094 213.546875 L 232.121094 241.433594 L 204.234375 241.433594 L 204.234375 213.546875 Z M 232.121094 213.546875 "/></g></g><g clip-rule="nonzero" clip-path="url(#b27df0b2c1)"><g clip-rule="nonzero" clip-path="url(#46509ecf5f)"><path style=" stroke:none;fill-rule:nonzero;fill:#7ed957;fill-opacity:1;" d="M 232.121094 252.425781 L 232.121094 280.3125 L 204.234375 280.3125 L 204.234375 252.425781 Z M 232.121094 252.425781 "/></g></g></g></svg>